<svg width="10in" height="2.92in" viewBox="0 0 48 14" version="1.1" xmlns="http://www.w3.org/2000/svg">
  <g transform="translate(0 14) scale(1 -1)">
    <!-- border -->
    <path
        d="
            M 47.7724941752977 6.35212121394351
            L 38.1242741413072 0.080778191849815
            A 0.5 0.5 0.0 0 0 37.8517799660095 0.0
            L 10.1482200339905 0.0
            A 0.5 0.5 0.0 0 0 9.8757258586928 0.080778191849718
            L 0.227505824702302 6.35212121394351
            A 0.5 0.5 0.0 0 0 0.0 6.77134302209383
            L 0.0 13.5
            A 0.5 0.5 0.0 0 0 0.5 14.0
            L 47.5 14.0
            A 0.5 0.5 0.0 0 0 48.0 13.5
            L 48.0 6.77134302209383
            A 0.5 0.5 0.0 0 0 47.7724941432116 6.35212119308757

            M 47.0 12.5
            L 47.0 7.04268604418767
            L 46.9343291627882 7.0
            L 1.06567083721173 7.0
            L 1.0 7.04268604418764
            L 1.0 12.5
            A 0.5 0.5 0.0 0 0 1.5 13.0
            L 46.5 13.0
            A 0.5 0.5 0.0 0 0 47.0 12.5

            M 2.60413237567329 6.0
            L 45.3958676243266 6.0
            L 37.827834073326 1.08077819184969
            A 0.5 0.5 0.0 0 0 37.5553398980283 1.0
            L 10.4446601019716 1.0
            A 0.5 0.5 0.0 0 0 10.1721659266739 1.08077819184967
            L 2.60413237567329 6.0

            Z"
        fill-opacity="1"
        fill-rule="evenodd" />

    <!-- C -->
    <path
        d="
            M 7.0 8.0
            A 1.0 1.0 0.0 0 1 7.70710678118655 8.29289321881345
            L 7.17677669529664 8.82322330470337
            A 0.25 0.25 0.0 0 0 7.0 8.75
            L 5.0 8.75
            A 1.25 1.25 0.0 0 0 5.0 11.25
            L 7.0 11.25
            A 0.25 0.25 0.0 0 0 7.17677669529663 11.1767766952966
            L 7.70710678118655 11.7071067811865
            A 1.0 1.0 0.0 0 1 7.0 12.0
            L 5.0 12.0
            A 2.0 2.0 0.0 0 1 5.0 8.0
            L 7.0 8.0

            Z"
        fill-opacity="1" />
    <!-- U -->
    <path
        d="
            M 15.25 8.0
            A 2.0 2.0 0.0 0 1 17.25 10.0
            L 17.25 12.0
            L 16.5 12.0
            L 16.5 10.0
            A 1.25 1.25 0.0 0 0 15.25 8.75
            L 14.25 8.75
            A 1.25 1.25 0.0 0 0 13.0 10.0
            L 13.0 12.0
            L 12.25 12.0
            L 12.25 10.0
            A 2.0 2.0 0.0 0 1 14.25 8.0
            L 15.25 8.0

            Z"
        fill-opacity="1" />
    <!-- R -->
    <path
        d="
            M 21.5 8.0
            L 21.5 12.0
            L 25.0 12.0
            A 1.5 1.5 0.0 0 0 25.4354143466935 9.06458565330652
            L 26.5 8.0
            L 25.4393398282202 8.0
            L 24.4393398282202 9.0
            L 22.25 9.0
            L 22.25 8.0
            L 21.5 8.0

            M 25.0 9.75
            L 22.25 9.75
            L 22.25 11.25
            L 25.0 11.25
            A 0.75 0.75 0.0 0 0 25.0 9.75

            Z"
        fill-opacity="1"
        fill-rule="evenodd" />
    <!-- T -->
    <path
        d="
            M 30.75 12.0
            L 35.75 12.0
            L 35.75 11.25
            L 33.625 11.25
            L 33.625 8.0
            L 32.875 8.0
            L 32.875 11.25
            L 30.75 11.25
            L 30.75 12.0

            Z"
        fill-opacity="1" />
    <!-- A -->
    <path
        d="
            M 40.0 10.0
            L 40.0 8.0
            L 40.75 8.0
            L 40.75 9.0
            L 44.25 9.0
            L 44.25 8.0
            L 45.0 8.0
            L 45.0 10.0
            A 2.0 2.0 0.0 0 1 43.0 12.0
            L 42.0 12.0
            A 2.0 2.0 0.0 0 1 40.0 10.0

            M 40.75 9.75
            L 44.25 9.75
            L 44.25 10.0
            A 1.25 1.25 0.0 0 1 43.0 11.25
            L 42.0 11.25
            A 1.25 1.25 0.0 0 1 40.75 10.0
            L 40.75 9.75

            Z"
        fill-opacity="1"
        fill-rule="evenodd" />

    <!-- arrow head -->
    <path
        d="
            M 12.75 4.4
            L 10.25 3.6
            L 10.25 3.4
            L 12.75 2.6
            L 12.75 3.0
            L 11.8125 3.3
            L 15.25 3.3
            L 15.25 3.7
            L 11.8125 3.7
            L 12.75 4.0
            L 12.75 4.4

            Z"
        fill-opacity="1" />
    <!-- O -->
    <path
        d="
            M 18.5 4.5
            L 17.5 4.5
            A 1.0 1.0 0.0 0 1 17.5 2.5
            L 18.5 2.5
            A 1.0 1.0 0.0 0 1 18.5 4.5

            M 18.5 4.0
            L 17.5 4.0
            A 0.5 0.5 0.0 0 1 17.5 3.0
            L 18.5 3.0
            A 0.5 0.5 0.0 0 1 18.5 4.0

            Z"
        fill-opacity="1"
        fill-rule="evenodd" />
    <!-- P -->
    <path
        d="
            M 22.75 4.5
            L 20.5 4.5
            L 20.5 2.5
            L 21.0 2.5
            L 21.0 3.0
            L 22.75 3.0
            A 0.75 0.75 0.0 0 1 22.75 4.5

            M 22.75 4.0
            L 21.0 4.0
            L 21.0 3.5
            L 22.75 3.5
            A 0.25 0.25 0.0 0 1 22.75 4.0

            Z"
        fill-opacity="1"
        fill-rule="evenodd" />
    <!-- E -->
    <path
        d="
            M 27.5 2.5
            L 24.5 2.5
            L 24.5 4.5
            L 27.5 4.5
            L 27.5 4.0
            L 25.0 4.0
            L 25.0 3.75
            L 26.5 3.75
            L 26.5 3.25
            L 25.0 3.25
            L 25.0 3.0
            L 27.5 3.0
            L 27.5 2.5

            Z"
        fill-opacity="1" />
    <!-- N -->
    <path
        d="
            M 31.0 2.5
            L 31.5 2.5
            L 31.5 4.5
            L 31.0 4.5
            L 31.0 3.16666666666667
            L 29.0 4.5
            L 28.5 4.5
            L 28.5 2.5
            L 29.0 2.5
            L 29.0 3.83333333333333
            L 31.0 2.5

            Z"
        fill-opacity="1" />
    <!-- arrow tail -->
    <path
        d="
            M 37.75 4.15
            L 37.75 4.0
            L 36.1875 3.5
            L 37.75 3.0
            L 37.75 2.6
            L 35.5625 3.3
            L 32.75 3.3
            L 32.75 3.7
            L 35.5625 3.7
            L 37.75 4.4
            L 37.75 4.0

            Z"
        fill-opacity="1" />
  </g>
</svg>
